# xmcd
#
# Track frame offsets: 
#        150
#        23531
#        49709
#        63015
#        88499
#        119105
#        146550
#        173883
#        201149
#        225473
#        246893
#        270668
#        290599
#
# Disc length: 4196 seconds
#
# Revision: 10
# Processed by: cddbd v1.5.2PL0 Copyright (c) Steve Scherf et al.
# Submitted via: ExactAudioCopy v1.0b1
#
DISCID=bc10620d
DTITLE=Dee Dee Bridgewater - Red Earth
DYEAR=2007
DGENRE=Jazz
TTITLE0=Afro Blue
TTITLE1=Bad Spirits (Bani)
TTITLE2=Dee Dee
TTITLE3=Mama Don't Ever Go Away (Mama Digna Sara Yé)
TTITLE4=Footprints
TTITLE5=Children Go 'Round (Demissènw)
TTITLE6=The Griots (Sakhodougou)
TTITLE7=Oh My Love (Djarabi)
TTITLE8=Four Women
TTITLE9=No More (Bambo)
TTITLE10=Red Earth (Massane Cissé)
TTITLE11=Meanwhile
TTITLE12=Compared To What
EXTD=YEAR: 2007
EXTT0=
EXTT1=
EXTT2=
EXTT3=
EXTT4=
EXTT5=
EXTT6=
EXTT7=
EXTT8=
EXTT9=
EXTT10=
EXTT11=
EXTT12=
PLAYORDER=
